<mxfile host="app.diagrams.net" agent="Mozilla/5.0 (Windows NT 10.0; Win64; x64) AppleWebKit/537.36 (KHTML, like Gecko) Chrome/127.0.0.0 Safari/537.36" version="24.7.6">
  <diagram id="C5RBs43oDa-KdzZeNtuy" name="Page-1">
    <mxGraphModel dx="-20" dy="3668" grid="1" gridSize="10" guides="1" tooltips="1" connect="1" arrows="1" fold="1" page="1" pageScale="1" pageWidth="900" pageHeight="1600" math="0" shadow="0">
      <root>
        <mxCell id="WIyWlLk6GJQsqaUBKTNV-0" />
        <mxCell id="WIyWlLk6GJQsqaUBKTNV-1" parent="WIyWlLk6GJQsqaUBKTNV-0" />
        <mxCell id="vZCzkrnJ1w7Ww1dgz6Ec-217" value="" style="group" vertex="1" connectable="0" parent="WIyWlLk6GJQsqaUBKTNV-1">
          <mxGeometry x="1090" y="-2880" width="1580" height="2450" as="geometry" />
        </mxCell>
        <mxCell id="zkfFHV4jXpPFQw0GAbJ--0" value="User" style="swimlane;fontStyle=2;align=center;verticalAlign=top;childLayout=stackLayout;horizontal=1;startSize=26;horizontalStack=0;resizeParent=1;resizeLast=0;collapsible=1;marginBottom=0;rounded=0;shadow=0;strokeWidth=1;" parent="vZCzkrnJ1w7Ww1dgz6Ec-217" vertex="1">
          <mxGeometry x="350" width="230" height="376" as="geometry">
            <mxRectangle x="230" y="140" width="160" height="26" as="alternateBounds" />
          </mxGeometry>
        </mxCell>
        <mxCell id="zkfFHV4jXpPFQw0GAbJ--1" value="+int UserID" style="text;align=left;verticalAlign=top;spacingLeft=4;spacingRight=4;overflow=hidden;rotatable=0;points=[[0,0.5],[1,0.5]];portConstraint=eastwest;" parent="zkfFHV4jXpPFQw0GAbJ--0" vertex="1">
          <mxGeometry y="26" width="230" height="26" as="geometry" />
        </mxCell>
        <mxCell id="zkfFHV4jXpPFQw0GAbJ--2" value="+string FirstName" style="text;align=left;verticalAlign=top;spacingLeft=4;spacingRight=4;overflow=hidden;rotatable=0;points=[[0,0.5],[1,0.5]];portConstraint=eastwest;rounded=0;shadow=0;html=0;" parent="zkfFHV4jXpPFQw0GAbJ--0" vertex="1">
          <mxGeometry y="52" width="230" height="26" as="geometry" />
        </mxCell>
        <mxCell id="zkfFHV4jXpPFQw0GAbJ--3" value="+string LastName" style="text;align=left;verticalAlign=top;spacingLeft=4;spacingRight=4;overflow=hidden;rotatable=0;points=[[0,0.5],[1,0.5]];portConstraint=eastwest;rounded=0;shadow=0;html=0;" parent="zkfFHV4jXpPFQw0GAbJ--0" vertex="1">
          <mxGeometry y="78" width="230" height="26" as="geometry" />
        </mxCell>
        <mxCell id="vZCzkrnJ1w7Ww1dgz6Ec-1" value="+string Email" style="text;align=left;verticalAlign=top;spacingLeft=4;spacingRight=4;overflow=hidden;rotatable=0;points=[[0,0.5],[1,0.5]];portConstraint=eastwest;rounded=0;shadow=0;html=0;" vertex="1" parent="zkfFHV4jXpPFQw0GAbJ--0">
          <mxGeometry y="104" width="230" height="26" as="geometry" />
        </mxCell>
        <mxCell id="vZCzkrnJ1w7Ww1dgz6Ec-0" value="+string Password" style="text;align=left;verticalAlign=top;spacingLeft=4;spacingRight=4;overflow=hidden;rotatable=0;points=[[0,0.5],[1,0.5]];portConstraint=eastwest;rounded=0;shadow=0;html=0;" vertex="1" parent="zkfFHV4jXpPFQw0GAbJ--0">
          <mxGeometry y="130" width="230" height="30" as="geometry" />
        </mxCell>
        <mxCell id="vZCzkrnJ1w7Ww1dgz6Ec-4" value="+string Nationality" style="text;strokeColor=none;fillColor=none;align=left;verticalAlign=middle;spacingLeft=4;spacingRight=4;overflow=hidden;points=[[0,0.5],[1,0.5]];portConstraint=eastwest;rotatable=0;whiteSpace=wrap;html=1;" vertex="1" parent="zkfFHV4jXpPFQw0GAbJ--0">
          <mxGeometry y="160" width="230" height="30" as="geometry" />
        </mxCell>
        <mxCell id="vZCzkrnJ1w7Ww1dgz6Ec-5" value="+string UserType" style="text;strokeColor=none;fillColor=none;align=left;verticalAlign=middle;spacingLeft=4;spacingRight=4;overflow=hidden;points=[[0,0.5],[1,0.5]];portConstraint=eastwest;rotatable=0;whiteSpace=wrap;html=1;" vertex="1" parent="zkfFHV4jXpPFQw0GAbJ--0">
          <mxGeometry y="190" width="230" height="30" as="geometry" />
        </mxCell>
        <mxCell id="vZCzkrnJ1w7Ww1dgz6Ec-21" value="+dateTime CreatedIt" style="text;strokeColor=none;fillColor=none;align=left;verticalAlign=middle;spacingLeft=4;spacingRight=4;overflow=hidden;points=[[0,0.5],[1,0.5]];portConstraint=eastwest;rotatable=0;whiteSpace=wrap;html=1;" vertex="1" parent="zkfFHV4jXpPFQw0GAbJ--0">
          <mxGeometry y="220" width="230" height="30" as="geometry" />
        </mxCell>
        <mxCell id="vZCzkrnJ1w7Ww1dgz6Ec-22" value="+dateTime UpdatedIt" style="text;strokeColor=none;fillColor=none;align=left;verticalAlign=middle;spacingLeft=4;spacingRight=4;overflow=hidden;points=[[0,0.5],[1,0.5]];portConstraint=eastwest;rotatable=0;whiteSpace=wrap;html=1;" vertex="1" parent="zkfFHV4jXpPFQw0GAbJ--0">
          <mxGeometry y="250" width="230" height="30" as="geometry" />
        </mxCell>
        <mxCell id="vZCzkrnJ1w7Ww1dgz6Ec-27" value="+register&lt;div&gt;+login&lt;/div&gt;&lt;div&gt;+logout&lt;/div&gt;&lt;div&gt;+hashpassword&lt;/div&gt;" style="text;strokeColor=none;fillColor=none;align=left;verticalAlign=middle;spacingLeft=4;spacingRight=4;overflow=hidden;points=[[0,0.5],[1,0.5]];portConstraint=eastwest;rotatable=0;whiteSpace=wrap;html=1;" vertex="1" parent="zkfFHV4jXpPFQw0GAbJ--0">
          <mxGeometry y="280" width="230" height="70" as="geometry" />
        </mxCell>
        <mxCell id="vZCzkrnJ1w7Ww1dgz6Ec-28" value="" style="endArrow=none;html=1;rounded=0;exitX=0.009;exitY=1.033;exitDx=0;exitDy=0;exitPerimeter=0;entryX=0.987;entryY=0.014;entryDx=0;entryDy=0;entryPerimeter=0;" edge="1" parent="zkfFHV4jXpPFQw0GAbJ--0" source="vZCzkrnJ1w7Ww1dgz6Ec-22" target="vZCzkrnJ1w7Ww1dgz6Ec-27">
          <mxGeometry width="50" height="50" relative="1" as="geometry">
            <mxPoint x="4" y="285" as="sourcePoint" />
            <mxPoint x="229" y="279" as="targetPoint" />
          </mxGeometry>
        </mxCell>
        <mxCell id="vZCzkrnJ1w7Ww1dgz6Ec-29" value="Admin" style="swimlane;fontStyle=2;align=center;verticalAlign=top;childLayout=stackLayout;horizontal=1;startSize=26;horizontalStack=0;resizeParent=1;resizeLast=0;collapsible=1;marginBottom=0;rounded=0;shadow=0;strokeWidth=1;" vertex="1" parent="vZCzkrnJ1w7Ww1dgz6Ec-217">
          <mxGeometry x="850" y="430" width="230" height="300" as="geometry">
            <mxRectangle x="230" y="140" width="160" height="26" as="alternateBounds" />
          </mxGeometry>
        </mxCell>
        <mxCell id="vZCzkrnJ1w7Ww1dgz6Ec-30" value="+int AdminID" style="text;align=left;verticalAlign=top;spacingLeft=4;spacingRight=4;overflow=hidden;rotatable=0;points=[[0,0.5],[1,0.5]];portConstraint=eastwest;" vertex="1" parent="vZCzkrnJ1w7Ww1dgz6Ec-29">
          <mxGeometry y="26" width="230" height="26" as="geometry" />
        </mxCell>
        <mxCell id="vZCzkrnJ1w7Ww1dgz6Ec-31" value="+string Name" style="text;align=left;verticalAlign=top;spacingLeft=4;spacingRight=4;overflow=hidden;rotatable=0;points=[[0,0.5],[1,0.5]];portConstraint=eastwest;rounded=0;shadow=0;html=0;" vertex="1" parent="vZCzkrnJ1w7Ww1dgz6Ec-29">
          <mxGeometry y="52" width="230" height="26" as="geometry" />
        </mxCell>
        <mxCell id="vZCzkrnJ1w7Ww1dgz6Ec-33" value="+string Email" style="text;align=left;verticalAlign=top;spacingLeft=4;spacingRight=4;overflow=hidden;rotatable=0;points=[[0,0.5],[1,0.5]];portConstraint=eastwest;rounded=0;shadow=0;html=0;" vertex="1" parent="vZCzkrnJ1w7Ww1dgz6Ec-29">
          <mxGeometry y="78" width="230" height="26" as="geometry" />
        </mxCell>
        <mxCell id="vZCzkrnJ1w7Ww1dgz6Ec-34" value="+string Role" style="text;align=left;verticalAlign=top;spacingLeft=4;spacingRight=4;overflow=hidden;rotatable=0;points=[[0,0.5],[1,0.5]];portConstraint=eastwest;rounded=0;shadow=0;html=0;" vertex="1" parent="vZCzkrnJ1w7Ww1dgz6Ec-29">
          <mxGeometry y="104" width="230" height="30" as="geometry" />
        </mxCell>
        <mxCell id="vZCzkrnJ1w7Ww1dgz6Ec-37" value="+dateTime CreatedIt" style="text;strokeColor=none;fillColor=none;align=left;verticalAlign=middle;spacingLeft=4;spacingRight=4;overflow=hidden;points=[[0,0.5],[1,0.5]];portConstraint=eastwest;rotatable=0;whiteSpace=wrap;html=1;" vertex="1" parent="vZCzkrnJ1w7Ww1dgz6Ec-29">
          <mxGeometry y="134" width="230" height="30" as="geometry" />
        </mxCell>
        <mxCell id="vZCzkrnJ1w7Ww1dgz6Ec-38" value="+dateTime UpdatedIt" style="text;strokeColor=none;fillColor=none;align=left;verticalAlign=middle;spacingLeft=4;spacingRight=4;overflow=hidden;points=[[0,0.5],[1,0.5]];portConstraint=eastwest;rotatable=0;whiteSpace=wrap;html=1;" vertex="1" parent="vZCzkrnJ1w7Ww1dgz6Ec-29">
          <mxGeometry y="164" width="230" height="30" as="geometry" />
        </mxCell>
        <mxCell id="vZCzkrnJ1w7Ww1dgz6Ec-39" value="+verifyDocuments()&lt;div&gt;+manageProfiles()&lt;/div&gt;&lt;div&gt;+monitorPlatform()&lt;/div&gt;&lt;div&gt;+provideSupport()&lt;/div&gt;&lt;div&gt;+generateReports()&lt;/div&gt;&lt;div&gt;-suspendAccount()&lt;/div&gt;" style="text;strokeColor=none;fillColor=none;align=left;verticalAlign=middle;spacingLeft=4;spacingRight=4;overflow=hidden;points=[[0,0.5],[1,0.5]];portConstraint=eastwest;rotatable=0;whiteSpace=wrap;html=1;" vertex="1" parent="vZCzkrnJ1w7Ww1dgz6Ec-29">
          <mxGeometry y="194" width="230" height="96" as="geometry" />
        </mxCell>
        <mxCell id="vZCzkrnJ1w7Ww1dgz6Ec-40" value="" style="endArrow=none;html=1;rounded=0;exitX=0.009;exitY=1.033;exitDx=0;exitDy=0;exitPerimeter=0;entryX=0.987;entryY=0.014;entryDx=0;entryDy=0;entryPerimeter=0;" edge="1" parent="vZCzkrnJ1w7Ww1dgz6Ec-29" source="vZCzkrnJ1w7Ww1dgz6Ec-38" target="vZCzkrnJ1w7Ww1dgz6Ec-39">
          <mxGeometry width="50" height="50" relative="1" as="geometry">
            <mxPoint x="4" y="285" as="sourcePoint" />
            <mxPoint x="229" y="279" as="targetPoint" />
          </mxGeometry>
        </mxCell>
        <mxCell id="vZCzkrnJ1w7Ww1dgz6Ec-153" value="" style="endArrow=none;html=1;rounded=0;exitX=0.48;exitY=0.01;exitDx=0;exitDy=0;exitPerimeter=0;" edge="1" parent="vZCzkrnJ1w7Ww1dgz6Ec-217" source="vZCzkrnJ1w7Ww1dgz6Ec-41">
          <mxGeometry width="50" height="50" relative="1" as="geometry">
            <mxPoint x="50" y="1050" as="sourcePoint" />
            <mxPoint x="400" y="380" as="targetPoint" />
          </mxGeometry>
        </mxCell>
        <mxCell id="vZCzkrnJ1w7Ww1dgz6Ec-155" value="&lt;font style=&quot;font-size: 14px;&quot;&gt;inherits&lt;/font&gt;" style="edgeLabel;html=1;align=center;verticalAlign=middle;resizable=0;points=[];" vertex="1" connectable="0" parent="vZCzkrnJ1w7Ww1dgz6Ec-153">
          <mxGeometry x="-0.0205" y="-2" relative="1" as="geometry">
            <mxPoint as="offset" />
          </mxGeometry>
        </mxCell>
        <mxCell id="vZCzkrnJ1w7Ww1dgz6Ec-156" value="" style="endArrow=none;html=1;rounded=0;exitX=0.5;exitY=0;exitDx=0;exitDy=0;" edge="1" parent="vZCzkrnJ1w7Ww1dgz6Ec-217" source="vZCzkrnJ1w7Ww1dgz6Ec-71">
          <mxGeometry width="50" height="50" relative="1" as="geometry">
            <mxPoint x="160" y="1183" as="sourcePoint" />
            <mxPoint x="450" y="380" as="targetPoint" />
          </mxGeometry>
        </mxCell>
        <mxCell id="vZCzkrnJ1w7Ww1dgz6Ec-157" value="&lt;font style=&quot;font-size: 14px;&quot;&gt;inherits&lt;/font&gt;" style="edgeLabel;html=1;align=center;verticalAlign=middle;resizable=0;points=[];" vertex="1" connectable="0" parent="vZCzkrnJ1w7Ww1dgz6Ec-156">
          <mxGeometry x="-0.0205" y="-2" relative="1" as="geometry">
            <mxPoint as="offset" />
          </mxGeometry>
        </mxCell>
        <mxCell id="vZCzkrnJ1w7Ww1dgz6Ec-166" value="" style="endArrow=none;html=1;rounded=0;exitX=1;exitY=0.5;exitDx=0;exitDy=0;entryX=1;entryY=0.5;entryDx=0;entryDy=0;" edge="1" parent="vZCzkrnJ1w7Ww1dgz6Ec-217" source="vZCzkrnJ1w7Ww1dgz6Ec-115" target="vZCzkrnJ1w7Ww1dgz6Ec-37">
          <mxGeometry width="50" height="50" relative="1" as="geometry">
            <mxPoint x="910" y="1600" as="sourcePoint" />
            <mxPoint x="960" y="1550" as="targetPoint" />
            <Array as="points">
              <mxPoint x="1580" y="1340" />
            </Array>
          </mxGeometry>
        </mxCell>
        <mxCell id="vZCzkrnJ1w7Ww1dgz6Ec-167" value="&lt;font style=&quot;font-size: 14px;&quot;&gt;verifies&lt;/font&gt;" style="edgeLabel;html=1;align=center;verticalAlign=middle;resizable=0;points=[];" vertex="1" connectable="0" parent="vZCzkrnJ1w7Ww1dgz6Ec-166">
          <mxGeometry x="0.5621" y="3" relative="1" as="geometry">
            <mxPoint as="offset" />
          </mxGeometry>
        </mxCell>
        <mxCell id="vZCzkrnJ1w7Ww1dgz6Ec-204" value="&lt;font style=&quot;font-size: 14px;&quot;&gt;1&lt;/font&gt;" style="edgeLabel;html=1;align=center;verticalAlign=middle;resizable=0;points=[];" vertex="1" connectable="0" parent="vZCzkrnJ1w7Ww1dgz6Ec-166">
          <mxGeometry x="0.713" y="5" relative="1" as="geometry">
            <mxPoint as="offset" />
          </mxGeometry>
        </mxCell>
        <mxCell id="vZCzkrnJ1w7Ww1dgz6Ec-205" value="&lt;font style=&quot;font-size: 14px;&quot;&gt;M&lt;/font&gt;" style="edgeLabel;html=1;align=center;verticalAlign=middle;resizable=0;points=[];" vertex="1" connectable="0" parent="vZCzkrnJ1w7Ww1dgz6Ec-166">
          <mxGeometry x="-0.7062" y="-1" relative="1" as="geometry">
            <mxPoint as="offset" />
          </mxGeometry>
        </mxCell>
        <mxCell id="vZCzkrnJ1w7Ww1dgz6Ec-173" value="" style="endArrow=classic;html=1;rounded=0;entryX=0.889;entryY=0;entryDx=0;entryDy=0;entryPerimeter=0;" edge="1" parent="vZCzkrnJ1w7Ww1dgz6Ec-217" target="vZCzkrnJ1w7Ww1dgz6Ec-102">
          <mxGeometry width="50" height="50" relative="1" as="geometry">
            <mxPoint x="310" y="1450" as="sourcePoint" />
            <mxPoint x="130" y="1570" as="targetPoint" />
          </mxGeometry>
        </mxCell>
        <mxCell id="vZCzkrnJ1w7Ww1dgz6Ec-176" value="&lt;font style=&quot;font-size: 14px;&quot;&gt;receives&lt;/font&gt;" style="edgeLabel;html=1;align=center;verticalAlign=middle;resizable=0;points=[];" vertex="1" connectable="0" parent="vZCzkrnJ1w7Ww1dgz6Ec-173">
          <mxGeometry x="-0.1888" y="2" relative="1" as="geometry">
            <mxPoint x="-1" as="offset" />
          </mxGeometry>
        </mxCell>
        <mxCell id="vZCzkrnJ1w7Ww1dgz6Ec-198" value="&lt;font style=&quot;font-size: 14px;&quot;&gt;1&lt;/font&gt;" style="edgeLabel;html=1;align=center;verticalAlign=middle;resizable=0;points=[];" vertex="1" connectable="0" parent="vZCzkrnJ1w7Ww1dgz6Ec-173">
          <mxGeometry x="-0.7851" relative="1" as="geometry">
            <mxPoint y="1" as="offset" />
          </mxGeometry>
        </mxCell>
        <mxCell id="vZCzkrnJ1w7Ww1dgz6Ec-199" value="&lt;font style=&quot;font-size: 14px;&quot;&gt;M&lt;/font&gt;" style="edgeLabel;html=1;align=center;verticalAlign=middle;resizable=0;points=[];" vertex="1" connectable="0" parent="vZCzkrnJ1w7Ww1dgz6Ec-173">
          <mxGeometry x="0.6128" y="-3" relative="1" as="geometry">
            <mxPoint as="offset" />
          </mxGeometry>
        </mxCell>
        <mxCell id="vZCzkrnJ1w7Ww1dgz6Ec-174" value="" style="endArrow=classic;html=1;rounded=0;entryX=0.657;entryY=-0.012;entryDx=0;entryDy=0;entryPerimeter=0;" edge="1" parent="vZCzkrnJ1w7Ww1dgz6Ec-217" target="vZCzkrnJ1w7Ww1dgz6Ec-102">
          <mxGeometry width="50" height="50" relative="1" as="geometry">
            <mxPoint x="30" y="1440" as="sourcePoint" />
            <mxPoint x="130" y="1570" as="targetPoint" />
          </mxGeometry>
        </mxCell>
        <mxCell id="vZCzkrnJ1w7Ww1dgz6Ec-175" value="&lt;font style=&quot;font-size: 14px;&quot;&gt;makes&lt;/font&gt;" style="edgeLabel;html=1;align=center;verticalAlign=middle;resizable=0;points=[];" vertex="1" connectable="0" parent="vZCzkrnJ1w7Ww1dgz6Ec-174">
          <mxGeometry x="-0.0744" relative="1" as="geometry">
            <mxPoint y="-1" as="offset" />
          </mxGeometry>
        </mxCell>
        <mxCell id="vZCzkrnJ1w7Ww1dgz6Ec-196" value="&lt;font style=&quot;font-size: 14px;&quot;&gt;1&lt;/font&gt;" style="edgeLabel;html=1;align=center;verticalAlign=middle;resizable=0;points=[];" vertex="1" connectable="0" parent="vZCzkrnJ1w7Ww1dgz6Ec-174">
          <mxGeometry x="-0.8172" y="-1" relative="1" as="geometry">
            <mxPoint y="-1" as="offset" />
          </mxGeometry>
        </mxCell>
        <mxCell id="vZCzkrnJ1w7Ww1dgz6Ec-197" value="&lt;font style=&quot;font-size: 14px;&quot;&gt;M&lt;/font&gt;" style="edgeLabel;html=1;align=center;verticalAlign=middle;resizable=0;points=[];" vertex="1" connectable="0" parent="vZCzkrnJ1w7Ww1dgz6Ec-174">
          <mxGeometry x="0.7392" relative="1" as="geometry">
            <mxPoint y="-1" as="offset" />
          </mxGeometry>
        </mxCell>
        <mxCell id="vZCzkrnJ1w7Ww1dgz6Ec-177" value="" style="endArrow=classic;html=1;rounded=0;entryX=1;entryY=0.5;entryDx=0;entryDy=0;exitX=0.5;exitY=1;exitDx=0;exitDy=0;" edge="1" parent="vZCzkrnJ1w7Ww1dgz6Ec-217" source="vZCzkrnJ1w7Ww1dgz6Ec-62" target="vZCzkrnJ1w7Ww1dgz6Ec-107">
          <mxGeometry width="50" height="50" relative="1" as="geometry">
            <mxPoint x="670" y="1420" as="sourcePoint" />
            <mxPoint x="3.8600000000001273" y="1769" as="targetPoint" />
            <Array as="points" />
          </mxGeometry>
        </mxCell>
        <mxCell id="vZCzkrnJ1w7Ww1dgz6Ec-178" value="&lt;span style=&quot;font-size: 14px;&quot;&gt;includes&lt;/span&gt;" style="edgeLabel;html=1;align=center;verticalAlign=middle;resizable=0;points=[];" vertex="1" connectable="0" parent="vZCzkrnJ1w7Ww1dgz6Ec-177">
          <mxGeometry x="-0.1888" y="2" relative="1" as="geometry">
            <mxPoint x="-1" as="offset" />
          </mxGeometry>
        </mxCell>
        <mxCell id="vZCzkrnJ1w7Ww1dgz6Ec-200" value="&lt;font style=&quot;font-size: 14px;&quot;&gt;1&lt;/font&gt;" style="edgeLabel;html=1;align=center;verticalAlign=middle;resizable=0;points=[];" vertex="1" connectable="0" parent="vZCzkrnJ1w7Ww1dgz6Ec-177">
          <mxGeometry x="-0.8803" y="5" relative="1" as="geometry">
            <mxPoint y="-1" as="offset" />
          </mxGeometry>
        </mxCell>
        <mxCell id="vZCzkrnJ1w7Ww1dgz6Ec-201" value="&lt;font style=&quot;font-size: 14px;&quot;&gt;M&lt;/font&gt;" style="edgeLabel;html=1;align=center;verticalAlign=middle;resizable=0;points=[];" vertex="1" connectable="0" parent="vZCzkrnJ1w7Ww1dgz6Ec-177">
          <mxGeometry x="0.5804" relative="1" as="geometry">
            <mxPoint as="offset" />
          </mxGeometry>
        </mxCell>
        <mxCell id="vZCzkrnJ1w7Ww1dgz6Ec-179" value="" style="endArrow=classic;html=1;rounded=0;exitX=1.004;exitY=0.097;exitDx=0;exitDy=0;exitPerimeter=0;entryX=0.01;entryY=0.049;entryDx=0;entryDy=0;entryPerimeter=0;" edge="1" parent="vZCzkrnJ1w7Ww1dgz6Ec-217" source="vZCzkrnJ1w7Ww1dgz6Ec-100" target="vZCzkrnJ1w7Ww1dgz6Ec-111">
          <mxGeometry width="50" height="50" relative="1" as="geometry">
            <mxPoint x="480" y="1620" as="sourcePoint" />
            <mxPoint x="530" y="1570" as="targetPoint" />
          </mxGeometry>
        </mxCell>
        <mxCell id="vZCzkrnJ1w7Ww1dgz6Ec-180" value="&lt;font style=&quot;font-size: 14px;&quot;&gt;submits&lt;/font&gt;" style="edgeLabel;html=1;align=center;verticalAlign=middle;resizable=0;points=[];" vertex="1" connectable="0" parent="vZCzkrnJ1w7Ww1dgz6Ec-179">
          <mxGeometry x="-0.0042" y="-2" relative="1" as="geometry">
            <mxPoint as="offset" />
          </mxGeometry>
        </mxCell>
        <mxCell id="vZCzkrnJ1w7Ww1dgz6Ec-202" value="&lt;font style=&quot;font-size: 14px;&quot;&gt;1&lt;/font&gt;" style="edgeLabel;html=1;align=center;verticalAlign=middle;resizable=0;points=[];" vertex="1" connectable="0" parent="vZCzkrnJ1w7Ww1dgz6Ec-179">
          <mxGeometry x="-0.685" y="-2" relative="1" as="geometry">
            <mxPoint as="offset" />
          </mxGeometry>
        </mxCell>
        <mxCell id="vZCzkrnJ1w7Ww1dgz6Ec-203" value="&lt;font style=&quot;font-size: 14px;&quot;&gt;M&lt;/font&gt;" style="edgeLabel;html=1;align=center;verticalAlign=middle;resizable=0;points=[];" vertex="1" connectable="0" parent="vZCzkrnJ1w7Ww1dgz6Ec-179">
          <mxGeometry x="0.5519" y="-1" relative="1" as="geometry">
            <mxPoint y="1" as="offset" />
          </mxGeometry>
        </mxCell>
        <mxCell id="vZCzkrnJ1w7Ww1dgz6Ec-181" value="" style="endArrow=classic;html=1;rounded=0;exitX=0.907;exitY=1;exitDx=0;exitDy=0;exitPerimeter=0;" edge="1" parent="vZCzkrnJ1w7Ww1dgz6Ec-217" source="vZCzkrnJ1w7Ww1dgz6Ec-122">
          <mxGeometry width="50" height="50" relative="1" as="geometry">
            <mxPoint x="95" y="1985" as="sourcePoint" />
            <mxPoint x="310" y="2120" as="targetPoint" />
          </mxGeometry>
        </mxCell>
        <mxCell id="vZCzkrnJ1w7Ww1dgz6Ec-182" value="&lt;font style=&quot;font-size: 14px;&quot;&gt;tracks&lt;/font&gt;" style="edgeLabel;html=1;align=center;verticalAlign=middle;resizable=0;points=[];" vertex="1" connectable="0" parent="vZCzkrnJ1w7Ww1dgz6Ec-181">
          <mxGeometry x="-0.136" y="5" relative="1" as="geometry">
            <mxPoint as="offset" />
          </mxGeometry>
        </mxCell>
        <mxCell id="vZCzkrnJ1w7Ww1dgz6Ec-206" value="&lt;font style=&quot;font-size: 14px;&quot;&gt;1&lt;/font&gt;" style="edgeLabel;html=1;align=center;verticalAlign=middle;resizable=0;points=[];" vertex="1" connectable="0" parent="vZCzkrnJ1w7Ww1dgz6Ec-181">
          <mxGeometry x="-0.5911" y="5" relative="1" as="geometry">
            <mxPoint as="offset" />
          </mxGeometry>
        </mxCell>
        <mxCell id="vZCzkrnJ1w7Ww1dgz6Ec-207" value="&lt;font style=&quot;font-size: 14px;&quot;&gt;M&lt;/font&gt;" style="edgeLabel;html=1;align=center;verticalAlign=middle;resizable=0;points=[];" vertex="1" connectable="0" parent="vZCzkrnJ1w7Ww1dgz6Ec-181">
          <mxGeometry x="0.4102" y="-1" relative="1" as="geometry">
            <mxPoint as="offset" />
          </mxGeometry>
        </mxCell>
        <mxCell id="vZCzkrnJ1w7Ww1dgz6Ec-183" value="" style="endArrow=classic;html=1;rounded=0;exitX=1;exitY=0.5;exitDx=0;exitDy=0;entryX=0.25;entryY=0;entryDx=0;entryDy=0;" edge="1" parent="vZCzkrnJ1w7Ww1dgz6Ec-217" source="vZCzkrnJ1w7Ww1dgz6Ec-122" target="vZCzkrnJ1w7Ww1dgz6Ec-138">
          <mxGeometry width="50" height="50" relative="1" as="geometry">
            <mxPoint x="3.8600000000001273" y="1990" as="sourcePoint" />
            <mxPoint x="3.8600000000001273" y="2108" as="targetPoint" />
          </mxGeometry>
        </mxCell>
        <mxCell id="vZCzkrnJ1w7Ww1dgz6Ec-184" value="&lt;span style=&quot;font-size: 14px;&quot;&gt;receives&lt;/span&gt;" style="edgeLabel;html=1;align=center;verticalAlign=middle;resizable=0;points=[];" vertex="1" connectable="0" parent="vZCzkrnJ1w7Ww1dgz6Ec-183">
          <mxGeometry x="-0.136" y="5" relative="1" as="geometry">
            <mxPoint as="offset" />
          </mxGeometry>
        </mxCell>
        <mxCell id="vZCzkrnJ1w7Ww1dgz6Ec-208" value="&lt;font style=&quot;font-size: 14px;&quot;&gt;1&lt;/font&gt;" style="edgeLabel;html=1;align=center;verticalAlign=middle;resizable=0;points=[];" vertex="1" connectable="0" parent="vZCzkrnJ1w7Ww1dgz6Ec-183">
          <mxGeometry x="-0.7364" relative="1" as="geometry">
            <mxPoint as="offset" />
          </mxGeometry>
        </mxCell>
        <mxCell id="vZCzkrnJ1w7Ww1dgz6Ec-209" value="&lt;b&gt;&lt;font style=&quot;font-size: 14px;&quot;&gt;M&lt;/font&gt;&lt;/b&gt;" style="edgeLabel;html=1;align=center;verticalAlign=middle;resizable=0;points=[];" vertex="1" connectable="0" parent="vZCzkrnJ1w7Ww1dgz6Ec-183">
          <mxGeometry x="0.5174" y="-2" relative="1" as="geometry">
            <mxPoint as="offset" />
          </mxGeometry>
        </mxCell>
        <mxCell id="vZCzkrnJ1w7Ww1dgz6Ec-188" value="" style="endArrow=classic;html=1;rounded=0;exitX=0.25;exitY=1;exitDx=0;exitDy=0;" edge="1" parent="vZCzkrnJ1w7Ww1dgz6Ec-217" source="vZCzkrnJ1w7Ww1dgz6Ec-29">
          <mxGeometry width="50" height="50" relative="1" as="geometry">
            <mxPoint x="630" y="920" as="sourcePoint" />
            <mxPoint x="430" y="1140" as="targetPoint" />
          </mxGeometry>
        </mxCell>
        <mxCell id="vZCzkrnJ1w7Ww1dgz6Ec-189" value="&lt;font style=&quot;font-size: 14px;&quot;&gt;manages&lt;/font&gt;" style="edgeLabel;html=1;align=center;verticalAlign=middle;resizable=0;points=[];" vertex="1" connectable="0" parent="vZCzkrnJ1w7Ww1dgz6Ec-188">
          <mxGeometry x="-0.0098" y="-2" relative="1" as="geometry">
            <mxPoint as="offset" />
          </mxGeometry>
        </mxCell>
        <mxCell id="vZCzkrnJ1w7Ww1dgz6Ec-193" value="&lt;font style=&quot;font-size: 14px;&quot;&gt;1&lt;/font&gt;" style="edgeLabel;html=1;align=center;verticalAlign=middle;resizable=0;points=[];" vertex="1" connectable="0" parent="vZCzkrnJ1w7Ww1dgz6Ec-188">
          <mxGeometry x="-0.7015" relative="1" as="geometry">
            <mxPoint y="1" as="offset" />
          </mxGeometry>
        </mxCell>
        <mxCell id="vZCzkrnJ1w7Ww1dgz6Ec-194" value="&lt;font style=&quot;font-size: 14px;&quot;&gt;M&lt;/font&gt;" style="edgeLabel;html=1;align=center;verticalAlign=middle;resizable=0;points=[];" vertex="1" connectable="0" parent="vZCzkrnJ1w7Ww1dgz6Ec-188">
          <mxGeometry x="0.7646" y="1" relative="1" as="geometry">
            <mxPoint y="1" as="offset" />
          </mxGeometry>
        </mxCell>
        <mxCell id="vZCzkrnJ1w7Ww1dgz6Ec-190" value="" style="endArrow=classic;html=1;rounded=0;exitX=1;exitY=1;exitDx=0;exitDy=0;entryX=0.25;entryY=0;entryDx=0;entryDy=0;" edge="1" parent="vZCzkrnJ1w7Ww1dgz6Ec-217" source="zkfFHV4jXpPFQw0GAbJ--0" target="vZCzkrnJ1w7Ww1dgz6Ec-80">
          <mxGeometry width="50" height="50" relative="1" as="geometry">
            <mxPoint x="630" y="920" as="sourcePoint" />
            <mxPoint x="1070" y="1139" as="targetPoint" />
            <Array as="points">
              <mxPoint x="810" y="710" />
            </Array>
          </mxGeometry>
        </mxCell>
        <mxCell id="vZCzkrnJ1w7Ww1dgz6Ec-191" value="&lt;font style=&quot;font-size: 14px;&quot;&gt;receives&lt;/font&gt;" style="edgeLabel;html=1;align=center;verticalAlign=middle;resizable=0;points=[];" vertex="1" connectable="0" parent="vZCzkrnJ1w7Ww1dgz6Ec-190">
          <mxGeometry x="-0.2078" relative="1" as="geometry">
            <mxPoint y="1" as="offset" />
          </mxGeometry>
        </mxCell>
        <mxCell id="vZCzkrnJ1w7Ww1dgz6Ec-195" value="&lt;font style=&quot;font-size: 14px;&quot;&gt;M&lt;/font&gt;" style="edgeLabel;html=1;align=center;verticalAlign=middle;resizable=0;points=[];" vertex="1" connectable="0" parent="vZCzkrnJ1w7Ww1dgz6Ec-190">
          <mxGeometry x="0.7865" y="1" relative="1" as="geometry">
            <mxPoint as="offset" />
          </mxGeometry>
        </mxCell>
        <mxCell id="vZCzkrnJ1w7Ww1dgz6Ec-192" value="&lt;font style=&quot;font-size: 14px;&quot;&gt;1&lt;/font&gt;" style="text;html=1;align=center;verticalAlign=middle;whiteSpace=wrap;rounded=0;" vertex="1" parent="vZCzkrnJ1w7Ww1dgz6Ec-217">
          <mxGeometry x="580" y="210" width="60" height="30" as="geometry" />
        </mxCell>
        <mxCell id="vZCzkrnJ1w7Ww1dgz6Ec-102" value="ServiceRequest" style="swimlane;fontStyle=2;align=center;verticalAlign=top;childLayout=stackLayout;horizontal=1;startSize=26;horizontalStack=0;resizeParent=1;resizeLast=0;collapsible=1;marginBottom=0;rounded=0;shadow=0;strokeWidth=1;" vertex="1" parent="vZCzkrnJ1w7Ww1dgz6Ec-217">
          <mxGeometry x="104.58999999999992" y="1660" width="226.43502075654357" height="320" as="geometry">
            <mxRectangle x="230" y="140" width="160" height="26" as="alternateBounds" />
          </mxGeometry>
        </mxCell>
        <mxCell id="vZCzkrnJ1w7Ww1dgz6Ec-103" value="+int RequestID" style="text;align=left;verticalAlign=top;spacingLeft=4;spacingRight=4;overflow=hidden;rotatable=0;points=[[0,0.5],[1,0.5]];portConstraint=eastwest;" vertex="1" parent="vZCzkrnJ1w7Ww1dgz6Ec-102">
          <mxGeometry y="26" width="226.43502075654357" height="26" as="geometry" />
        </mxCell>
        <mxCell id="vZCzkrnJ1w7Ww1dgz6Ec-104" value="+int StudentID" style="text;align=left;verticalAlign=top;spacingLeft=4;spacingRight=4;overflow=hidden;rotatable=0;points=[[0,0.5],[1,0.5]];portConstraint=eastwest;rounded=0;shadow=0;html=0;" vertex="1" parent="vZCzkrnJ1w7Ww1dgz6Ec-102">
          <mxGeometry y="52" width="226.43502075654357" height="26" as="geometry" />
        </mxCell>
        <mxCell id="vZCzkrnJ1w7Ww1dgz6Ec-105" value="+int ExpertID" style="text;align=left;verticalAlign=top;spacingLeft=4;spacingRight=4;overflow=hidden;rotatable=0;points=[[0,0.5],[1,0.5]];portConstraint=eastwest;rounded=0;shadow=0;html=0;" vertex="1" parent="vZCzkrnJ1w7Ww1dgz6Ec-102">
          <mxGeometry y="78" width="226.43502075654357" height="26" as="geometry" />
        </mxCell>
        <mxCell id="vZCzkrnJ1w7Ww1dgz6Ec-106" value="+int ServiceID" style="text;align=left;verticalAlign=top;spacingLeft=4;spacingRight=4;overflow=hidden;rotatable=0;points=[[0,0.5],[1,0.5]];portConstraint=eastwest;rounded=0;shadow=0;html=0;" vertex="1" parent="vZCzkrnJ1w7Ww1dgz6Ec-102">
          <mxGeometry y="104" width="226.43502075654357" height="30" as="geometry" />
        </mxCell>
        <mxCell id="vZCzkrnJ1w7Ww1dgz6Ec-107" value="+string Status" style="text;strokeColor=none;fillColor=none;align=left;verticalAlign=middle;spacingLeft=4;spacingRight=4;overflow=hidden;points=[[0,0.5],[1,0.5]];portConstraint=eastwest;rotatable=0;whiteSpace=wrap;html=1;" vertex="1" parent="vZCzkrnJ1w7Ww1dgz6Ec-102">
          <mxGeometry y="134" width="226.43502075654357" height="30" as="geometry" />
        </mxCell>
        <mxCell id="vZCzkrnJ1w7Ww1dgz6Ec-108" value="+dateTime RequestedIt" style="text;strokeColor=none;fillColor=none;align=left;verticalAlign=middle;spacingLeft=4;spacingRight=4;overflow=hidden;points=[[0,0.5],[1,0.5]];portConstraint=eastwest;rotatable=0;whiteSpace=wrap;html=1;" vertex="1" parent="vZCzkrnJ1w7Ww1dgz6Ec-102">
          <mxGeometry y="164" width="226.43502075654357" height="30" as="geometry" />
        </mxCell>
        <mxCell id="vZCzkrnJ1w7Ww1dgz6Ec-121" value="+dateTime CompletedIt" style="text;strokeColor=none;fillColor=none;align=left;verticalAlign=middle;spacingLeft=4;spacingRight=4;overflow=hidden;points=[[0,0.5],[1,0.5]];portConstraint=eastwest;rotatable=0;whiteSpace=wrap;html=1;" vertex="1" parent="vZCzkrnJ1w7Ww1dgz6Ec-102">
          <mxGeometry y="194" width="226.43502075654357" height="30" as="geometry" />
        </mxCell>
        <mxCell id="vZCzkrnJ1w7Ww1dgz6Ec-123" value="" style="endArrow=none;html=1;rounded=0;exitX=0.009;exitY=1.033;exitDx=0;exitDy=0;exitPerimeter=0;entryX=0.987;entryY=0.014;entryDx=0;entryDy=0;entryPerimeter=0;" edge="1" parent="vZCzkrnJ1w7Ww1dgz6Ec-102">
          <mxGeometry width="50" height="50" relative="1" as="geometry">
            <mxPoint x="2.4612502256146036" y="240" as="sourcePoint" />
            <mxPoint x="223.97377053092896" y="240" as="targetPoint" />
          </mxGeometry>
        </mxCell>
        <mxCell id="vZCzkrnJ1w7Ww1dgz6Ec-122" value="+submitRequest()&lt;div&gt;+updateRequestStatus()&lt;/div&gt;&lt;div&gt;-calculateCompletionTime()&lt;/div&gt;" style="text;strokeColor=none;fillColor=none;align=left;verticalAlign=middle;spacingLeft=4;spacingRight=4;overflow=hidden;points=[[0,0.5],[1,0.5]];portConstraint=eastwest;rotatable=0;whiteSpace=wrap;html=1;" vertex="1" parent="vZCzkrnJ1w7Ww1dgz6Ec-102">
          <mxGeometry y="224" width="226.43502075654357" height="96" as="geometry" />
        </mxCell>
        <mxCell id="vZCzkrnJ1w7Ww1dgz6Ec-111" value="Document" style="swimlane;fontStyle=2;align=center;verticalAlign=top;childLayout=stackLayout;horizontal=1;startSize=26;horizontalStack=0;resizeParent=1;resizeLast=0;collapsible=1;marginBottom=0;rounded=0;shadow=0;strokeWidth=1;" vertex="1" parent="vZCzkrnJ1w7Ww1dgz6Ec-217">
          <mxGeometry x="860.0049792434565" y="1650" width="226.43502075654357" height="300" as="geometry">
            <mxRectangle x="230" y="140" width="160" height="26" as="alternateBounds" />
          </mxGeometry>
        </mxCell>
        <mxCell id="vZCzkrnJ1w7Ww1dgz6Ec-112" value="+int DocumentID" style="text;align=left;verticalAlign=top;spacingLeft=4;spacingRight=4;overflow=hidden;rotatable=0;points=[[0,0.5],[1,0.5]];portConstraint=eastwest;" vertex="1" parent="vZCzkrnJ1w7Ww1dgz6Ec-111">
          <mxGeometry y="26" width="226.43502075654357" height="26" as="geometry" />
        </mxCell>
        <mxCell id="vZCzkrnJ1w7Ww1dgz6Ec-126" value="+int ExpertID" style="text;align=left;verticalAlign=top;spacingLeft=4;spacingRight=4;overflow=hidden;rotatable=0;points=[[0,0.5],[1,0.5]];portConstraint=eastwest;rounded=0;shadow=0;html=0;" vertex="1" parent="vZCzkrnJ1w7Ww1dgz6Ec-111">
          <mxGeometry y="52" width="226.43502075654357" height="26" as="geometry" />
        </mxCell>
        <mxCell id="vZCzkrnJ1w7Ww1dgz6Ec-114" value="+string DocumentType" style="text;align=left;verticalAlign=top;spacingLeft=4;spacingRight=4;overflow=hidden;rotatable=0;points=[[0,0.5],[1,0.5]];portConstraint=eastwest;rounded=0;shadow=0;html=0;" vertex="1" parent="vZCzkrnJ1w7Ww1dgz6Ec-111">
          <mxGeometry y="78" width="226.43502075654357" height="26" as="geometry" />
        </mxCell>
        <mxCell id="vZCzkrnJ1w7Ww1dgz6Ec-115" value="+string File" style="text;align=left;verticalAlign=top;spacingLeft=4;spacingRight=4;overflow=hidden;rotatable=0;points=[[0,0.5],[1,0.5]];portConstraint=eastwest;rounded=0;shadow=0;html=0;" vertex="1" parent="vZCzkrnJ1w7Ww1dgz6Ec-111">
          <mxGeometry y="104" width="226.43502075654357" height="30" as="geometry" />
        </mxCell>
        <mxCell id="vZCzkrnJ1w7Ww1dgz6Ec-116" value="+dateTime SubmittedIt" style="text;strokeColor=none;fillColor=none;align=left;verticalAlign=middle;spacingLeft=4;spacingRight=4;overflow=hidden;points=[[0,0.5],[1,0.5]];portConstraint=eastwest;rotatable=0;whiteSpace=wrap;html=1;" vertex="1" parent="vZCzkrnJ1w7Ww1dgz6Ec-111">
          <mxGeometry y="134" width="226.43502075654357" height="30" as="geometry" />
        </mxCell>
        <mxCell id="vZCzkrnJ1w7Ww1dgz6Ec-117" value="+dateTime VerifiedIt" style="text;strokeColor=none;fillColor=none;align=left;verticalAlign=middle;spacingLeft=4;spacingRight=4;overflow=hidden;points=[[0,0.5],[1,0.5]];portConstraint=eastwest;rotatable=0;whiteSpace=wrap;html=1;" vertex="1" parent="vZCzkrnJ1w7Ww1dgz6Ec-111">
          <mxGeometry y="164" width="226.43502075654357" height="30" as="geometry" />
        </mxCell>
        <mxCell id="vZCzkrnJ1w7Ww1dgz6Ec-118" value="+uploadDocument()&lt;div&gt;+verifyDocument()&lt;/div&gt;&lt;div&gt;-storeDocumentSecurely()&lt;/div&gt;" style="text;strokeColor=none;fillColor=none;align=left;verticalAlign=middle;spacingLeft=4;spacingRight=4;overflow=hidden;points=[[0,0.5],[1,0.5]];portConstraint=eastwest;rotatable=0;whiteSpace=wrap;html=1;" vertex="1" parent="vZCzkrnJ1w7Ww1dgz6Ec-111">
          <mxGeometry y="194" width="226.43502075654357" height="96" as="geometry" />
        </mxCell>
        <mxCell id="vZCzkrnJ1w7Ww1dgz6Ec-119" value="" style="endArrow=none;html=1;rounded=0;exitX=0.009;exitY=1.033;exitDx=0;exitDy=0;exitPerimeter=0;entryX=0.987;entryY=0.014;entryDx=0;entryDy=0;entryPerimeter=0;" edge="1" parent="vZCzkrnJ1w7Ww1dgz6Ec-111" source="vZCzkrnJ1w7Ww1dgz6Ec-117" target="vZCzkrnJ1w7Ww1dgz6Ec-118">
          <mxGeometry width="50" height="50" relative="1" as="geometry">
            <mxPoint x="3.938000360983366" y="285" as="sourcePoint" />
            <mxPoint x="225.4505206662977" y="279" as="targetPoint" />
          </mxGeometry>
        </mxCell>
        <mxCell id="vZCzkrnJ1w7Ww1dgz6Ec-41" value="Student" style="swimlane;fontStyle=2;align=center;verticalAlign=top;childLayout=stackLayout;horizontal=1;startSize=26;horizontalStack=0;resizeParent=1;resizeLast=0;collapsible=1;marginBottom=0;rounded=0;shadow=0;strokeWidth=1;" vertex="1" parent="vZCzkrnJ1w7Ww1dgz6Ec-217">
          <mxGeometry y="1140" width="331.02803738317755" height="300" as="geometry">
            <mxRectangle x="230" y="140" width="160" height="26" as="alternateBounds" />
          </mxGeometry>
        </mxCell>
        <mxCell id="vZCzkrnJ1w7Ww1dgz6Ec-42" value="+int StudentID" style="text;align=left;verticalAlign=top;spacingLeft=4;spacingRight=4;overflow=hidden;rotatable=0;points=[[0,0.5],[1,0.5]];portConstraint=eastwest;" vertex="1" parent="vZCzkrnJ1w7Ww1dgz6Ec-41">
          <mxGeometry y="26" width="331.02803738317755" height="26" as="geometry" />
        </mxCell>
        <mxCell id="vZCzkrnJ1w7Ww1dgz6Ec-43" value="+int UserUD" style="text;align=left;verticalAlign=top;spacingLeft=4;spacingRight=4;overflow=hidden;rotatable=0;points=[[0,0.5],[1,0.5]];portConstraint=eastwest;rounded=0;shadow=0;html=0;" vertex="1" parent="vZCzkrnJ1w7Ww1dgz6Ec-41">
          <mxGeometry y="52" width="331.02803738317755" height="26" as="geometry" />
        </mxCell>
        <mxCell id="vZCzkrnJ1w7Ww1dgz6Ec-44" value="+string School" style="text;align=left;verticalAlign=top;spacingLeft=4;spacingRight=4;overflow=hidden;rotatable=0;points=[[0,0.5],[1,0.5]];portConstraint=eastwest;rounded=0;shadow=0;html=0;" vertex="1" parent="vZCzkrnJ1w7Ww1dgz6Ec-41">
          <mxGeometry y="78" width="331.02803738317755" height="26" as="geometry" />
        </mxCell>
        <mxCell id="vZCzkrnJ1w7Ww1dgz6Ec-45" value="+string ServicesRequired" style="text;align=left;verticalAlign=top;spacingLeft=4;spacingRight=4;overflow=hidden;rotatable=0;points=[[0,0.5],[1,0.5]];portConstraint=eastwest;rounded=0;shadow=0;html=0;" vertex="1" parent="vZCzkrnJ1w7Ww1dgz6Ec-41">
          <mxGeometry y="104" width="331.02803738317755" height="30" as="geometry" />
        </mxCell>
        <mxCell id="vZCzkrnJ1w7Ww1dgz6Ec-46" value="+dateTime CreatedIt" style="text;strokeColor=none;fillColor=none;align=left;verticalAlign=middle;spacingLeft=4;spacingRight=4;overflow=hidden;points=[[0,0.5],[1,0.5]];portConstraint=eastwest;rotatable=0;whiteSpace=wrap;html=1;" vertex="1" parent="vZCzkrnJ1w7Ww1dgz6Ec-41">
          <mxGeometry y="134" width="331.02803738317755" height="30" as="geometry" />
        </mxCell>
        <mxCell id="vZCzkrnJ1w7Ww1dgz6Ec-47" value="+dateTime UpdatedIt" style="text;strokeColor=none;fillColor=none;align=left;verticalAlign=middle;spacingLeft=4;spacingRight=4;overflow=hidden;points=[[0,0.5],[1,0.5]];portConstraint=eastwest;rotatable=0;whiteSpace=wrap;html=1;" vertex="1" parent="vZCzkrnJ1w7Ww1dgz6Ec-41">
          <mxGeometry y="164" width="331.02803738317755" height="30" as="geometry" />
        </mxCell>
        <mxCell id="vZCzkrnJ1w7Ww1dgz6Ec-48" value="+createProfile()&lt;div&gt;+selectService()&lt;/div&gt;&lt;div&gt;+trackProgress()&lt;/div&gt;&lt;div&gt;+leaveReview()&lt;/div&gt;&lt;div&gt;-calculateServiceCost()&lt;/div&gt;" style="text;strokeColor=none;fillColor=none;align=left;verticalAlign=middle;spacingLeft=4;spacingRight=4;overflow=hidden;points=[[0,0.5],[1,0.5]];portConstraint=eastwest;rotatable=0;whiteSpace=wrap;html=1;" vertex="1" parent="vZCzkrnJ1w7Ww1dgz6Ec-41">
          <mxGeometry y="194" width="331.02803738317755" height="96" as="geometry" />
        </mxCell>
        <mxCell id="vZCzkrnJ1w7Ww1dgz6Ec-49" value="" style="endArrow=none;html=1;rounded=0;exitX=0.009;exitY=1.033;exitDx=0;exitDy=0;exitPerimeter=0;entryX=0.987;entryY=0.014;entryDx=0;entryDy=0;entryPerimeter=0;" edge="1" parent="vZCzkrnJ1w7Ww1dgz6Ec-41" source="vZCzkrnJ1w7Ww1dgz6Ec-47" target="vZCzkrnJ1w7Ww1dgz6Ec-48">
          <mxGeometry width="50" height="50" relative="1" as="geometry">
            <mxPoint x="5.757009345794392" y="285" as="sourcePoint" />
            <mxPoint x="329.5887850467289" y="279" as="targetPoint" />
          </mxGeometry>
        </mxCell>
        <mxCell id="vZCzkrnJ1w7Ww1dgz6Ec-62" value="Service" style="swimlane;fontStyle=2;align=center;verticalAlign=top;childLayout=stackLayout;horizontal=1;startSize=26;horizontalStack=0;resizeParent=1;resizeLast=0;collapsible=1;marginBottom=0;rounded=0;shadow=0;strokeWidth=1;" vertex="1" parent="vZCzkrnJ1w7Ww1dgz6Ec-217">
          <mxGeometry x="719.9987850467289" y="1140" width="331.02803738317755" height="267" as="geometry">
            <mxRectangle x="230" y="140" width="160" height="26" as="alternateBounds" />
          </mxGeometry>
        </mxCell>
        <mxCell id="vZCzkrnJ1w7Ww1dgz6Ec-63" value="+int ServiceID" style="text;align=left;verticalAlign=top;spacingLeft=4;spacingRight=4;overflow=hidden;rotatable=0;points=[[0,0.5],[1,0.5]];portConstraint=eastwest;" vertex="1" parent="vZCzkrnJ1w7Ww1dgz6Ec-62">
          <mxGeometry y="26" width="331.02803738317755" height="26" as="geometry" />
        </mxCell>
        <mxCell id="vZCzkrnJ1w7Ww1dgz6Ec-64" value="+string ServiceType" style="text;align=left;verticalAlign=top;spacingLeft=4;spacingRight=4;overflow=hidden;rotatable=0;points=[[0,0.5],[1,0.5]];portConstraint=eastwest;rounded=0;shadow=0;html=0;" vertex="1" parent="vZCzkrnJ1w7Ww1dgz6Ec-62">
          <mxGeometry y="52" width="331.02803738317755" height="26" as="geometry" />
        </mxCell>
        <mxCell id="vZCzkrnJ1w7Ww1dgz6Ec-65" value="+string Description" style="text;align=left;verticalAlign=top;spacingLeft=4;spacingRight=4;overflow=hidden;rotatable=0;points=[[0,0.5],[1,0.5]];portConstraint=eastwest;rounded=0;shadow=0;html=0;" vertex="1" parent="vZCzkrnJ1w7Ww1dgz6Ec-62">
          <mxGeometry y="78" width="331.02803738317755" height="26" as="geometry" />
        </mxCell>
        <mxCell id="vZCzkrnJ1w7Ww1dgz6Ec-67" value="+dateTime CreatedIt" style="text;strokeColor=none;fillColor=none;align=left;verticalAlign=middle;spacingLeft=4;spacingRight=4;overflow=hidden;points=[[0,0.5],[1,0.5]];portConstraint=eastwest;rotatable=0;whiteSpace=wrap;html=1;" vertex="1" parent="vZCzkrnJ1w7Ww1dgz6Ec-62">
          <mxGeometry y="104" width="331.02803738317755" height="30" as="geometry" />
        </mxCell>
        <mxCell id="vZCzkrnJ1w7Ww1dgz6Ec-68" value="+dateTime UpdatedIt" style="text;strokeColor=none;fillColor=none;align=left;verticalAlign=middle;spacingLeft=4;spacingRight=4;overflow=hidden;points=[[0,0.5],[1,0.5]];portConstraint=eastwest;rotatable=0;whiteSpace=wrap;html=1;" vertex="1" parent="vZCzkrnJ1w7Ww1dgz6Ec-62">
          <mxGeometry y="134" width="331.02803738317755" height="30" as="geometry" />
        </mxCell>
        <mxCell id="vZCzkrnJ1w7Ww1dgz6Ec-69" value="+createService()&lt;div&gt;+updateServiceDetails()&lt;/div&gt;&lt;div&gt;-calculatePricing()&lt;/div&gt;" style="text;strokeColor=none;fillColor=none;align=left;verticalAlign=middle;spacingLeft=4;spacingRight=4;overflow=hidden;points=[[0,0.5],[1,0.5]];portConstraint=eastwest;rotatable=0;whiteSpace=wrap;html=1;" vertex="1" parent="vZCzkrnJ1w7Ww1dgz6Ec-62">
          <mxGeometry y="164" width="331.02803738317755" height="96" as="geometry" />
        </mxCell>
        <mxCell id="vZCzkrnJ1w7Ww1dgz6Ec-70" value="" style="endArrow=none;html=1;rounded=0;exitX=0.009;exitY=1.033;exitDx=0;exitDy=0;exitPerimeter=0;entryX=0.987;entryY=0.014;entryDx=0;entryDy=0;entryPerimeter=0;" edge="1" parent="vZCzkrnJ1w7Ww1dgz6Ec-62" source="vZCzkrnJ1w7Ww1dgz6Ec-68" target="vZCzkrnJ1w7Ww1dgz6Ec-69">
          <mxGeometry width="50" height="50" relative="1" as="geometry">
            <mxPoint x="5.757009345794392" y="285" as="sourcePoint" />
            <mxPoint x="329.5887850467289" y="279" as="targetPoint" />
          </mxGeometry>
        </mxCell>
        <mxCell id="vZCzkrnJ1w7Ww1dgz6Ec-71" value="Expert" style="swimlane;fontStyle=2;align=center;verticalAlign=top;childLayout=stackLayout;horizontal=1;startSize=26;horizontalStack=0;resizeParent=1;resizeLast=0;collapsible=1;marginBottom=0;rounded=0;shadow=0;strokeWidth=1;" vertex="1" parent="vZCzkrnJ1w7Ww1dgz6Ec-217">
          <mxGeometry x="359.99813084112157" y="1140" width="331.02803738317755" height="377" as="geometry">
            <mxRectangle x="230" y="140" width="160" height="26" as="alternateBounds" />
          </mxGeometry>
        </mxCell>
        <mxCell id="vZCzkrnJ1w7Ww1dgz6Ec-72" value="+int ExpertID" style="text;align=left;verticalAlign=top;spacingLeft=4;spacingRight=4;overflow=hidden;rotatable=0;points=[[0,0.5],[1,0.5]];portConstraint=eastwest;" vertex="1" parent="vZCzkrnJ1w7Ww1dgz6Ec-71">
          <mxGeometry y="26" width="331.02803738317755" height="26" as="geometry" />
        </mxCell>
        <mxCell id="vZCzkrnJ1w7Ww1dgz6Ec-73" value="+int UserID" style="text;align=left;verticalAlign=top;spacingLeft=4;spacingRight=4;overflow=hidden;rotatable=0;points=[[0,0.5],[1,0.5]];portConstraint=eastwest;rounded=0;shadow=0;html=0;" vertex="1" parent="vZCzkrnJ1w7Ww1dgz6Ec-71">
          <mxGeometry y="52" width="331.02803738317755" height="26" as="geometry" />
        </mxCell>
        <mxCell id="vZCzkrnJ1w7Ww1dgz6Ec-74" value="+string bio" style="text;align=left;verticalAlign=top;spacingLeft=4;spacingRight=4;overflow=hidden;rotatable=0;points=[[0,0.5],[1,0.5]];portConstraint=eastwest;rounded=0;shadow=0;html=0;" vertex="1" parent="vZCzkrnJ1w7Ww1dgz6Ec-71">
          <mxGeometry y="78" width="331.02803738317755" height="26" as="geometry" />
        </mxCell>
        <mxCell id="vZCzkrnJ1w7Ww1dgz6Ec-75" value="+string Expertise" style="text;align=left;verticalAlign=top;spacingLeft=4;spacingRight=4;overflow=hidden;rotatable=0;points=[[0,0.5],[1,0.5]];portConstraint=eastwest;rounded=0;shadow=0;html=0;" vertex="1" parent="vZCzkrnJ1w7Ww1dgz6Ec-71">
          <mxGeometry y="104" width="331.02803738317755" height="30" as="geometry" />
        </mxCell>
        <mxCell id="vZCzkrnJ1w7Ww1dgz6Ec-90" value="+string Nationality" style="text;align=left;verticalAlign=top;spacingLeft=4;spacingRight=4;overflow=hidden;rotatable=0;points=[[0,0.5],[1,0.5]];portConstraint=eastwest;rounded=0;shadow=0;html=0;" vertex="1" parent="vZCzkrnJ1w7Ww1dgz6Ec-71">
          <mxGeometry y="134" width="331.02803738317755" height="30" as="geometry" />
        </mxCell>
        <mxCell id="vZCzkrnJ1w7Ww1dgz6Ec-97" value="+string CompilanceStatus" style="text;align=left;verticalAlign=top;spacingLeft=4;spacingRight=4;overflow=hidden;rotatable=0;points=[[0,0.5],[1,0.5]];portConstraint=eastwest;rounded=0;shadow=0;html=0;" vertex="1" parent="vZCzkrnJ1w7Ww1dgz6Ec-71">
          <mxGeometry y="164" width="331.02803738317755" height="30" as="geometry" />
        </mxCell>
        <mxCell id="vZCzkrnJ1w7Ww1dgz6Ec-98" value="+dateTime CreatedIt" style="text;strokeColor=none;fillColor=none;align=left;verticalAlign=middle;spacingLeft=4;spacingRight=4;overflow=hidden;points=[[0,0.5],[1,0.5]];portConstraint=eastwest;rotatable=0;whiteSpace=wrap;html=1;" vertex="1" parent="vZCzkrnJ1w7Ww1dgz6Ec-71">
          <mxGeometry y="194" width="331.02803738317755" height="30" as="geometry" />
        </mxCell>
        <mxCell id="vZCzkrnJ1w7Ww1dgz6Ec-99" value="+dateTime UpdatedIt" style="text;strokeColor=none;fillColor=none;align=left;verticalAlign=middle;spacingLeft=4;spacingRight=4;overflow=hidden;points=[[0,0.5],[1,0.5]];portConstraint=eastwest;rotatable=0;whiteSpace=wrap;html=1;" vertex="1" parent="vZCzkrnJ1w7Ww1dgz6Ec-71">
          <mxGeometry y="224" width="331.02803738317755" height="30" as="geometry" />
        </mxCell>
        <mxCell id="vZCzkrnJ1w7Ww1dgz6Ec-101" value="" style="endArrow=none;html=1;rounded=0;exitX=0.009;exitY=1.033;exitDx=0;exitDy=0;exitPerimeter=0;entryX=0.987;entryY=0.014;entryDx=0;entryDy=0;entryPerimeter=0;" edge="1" parent="vZCzkrnJ1w7Ww1dgz6Ec-71">
          <mxGeometry width="50" height="50" relative="1" as="geometry">
            <mxPoint x="3.5981308411214945" y="254" as="sourcePoint" />
            <mxPoint x="327.429906542056" y="254" as="targetPoint" />
          </mxGeometry>
        </mxCell>
        <mxCell id="vZCzkrnJ1w7Ww1dgz6Ec-100" value="+submitDocuments()&lt;div&gt;+manageServices()&lt;/div&gt;&lt;div&gt;+receiveNotifications()&lt;/div&gt;&lt;div&gt;+provideService()&lt;/div&gt;&lt;div&gt;-verifyCompilance()&lt;/div&gt;" style="text;strokeColor=none;fillColor=none;align=left;verticalAlign=middle;spacingLeft=4;spacingRight=4;overflow=hidden;points=[[0,0.5],[1,0.5]];portConstraint=eastwest;rotatable=0;whiteSpace=wrap;html=1;" vertex="1" parent="vZCzkrnJ1w7Ww1dgz6Ec-71">
          <mxGeometry y="254" width="331.02803738317755" height="96" as="geometry" />
        </mxCell>
        <mxCell id="vZCzkrnJ1w7Ww1dgz6Ec-80" value="Notification" style="swimlane;fontStyle=2;align=center;verticalAlign=top;childLayout=stackLayout;horizontal=1;startSize=26;horizontalStack=0;resizeParent=1;resizeLast=0;collapsible=1;marginBottom=0;rounded=0;shadow=0;strokeWidth=1;" vertex="1" parent="vZCzkrnJ1w7Ww1dgz6Ec-217">
          <mxGeometry x="1110.0019626168223" y="1140" width="331.02803738317755" height="300" as="geometry">
            <mxRectangle x="230" y="140" width="160" height="26" as="alternateBounds" />
          </mxGeometry>
        </mxCell>
        <mxCell id="vZCzkrnJ1w7Ww1dgz6Ec-81" value="+int NotificationID" style="text;align=left;verticalAlign=top;spacingLeft=4;spacingRight=4;overflow=hidden;rotatable=0;points=[[0,0.5],[1,0.5]];portConstraint=eastwest;" vertex="1" parent="vZCzkrnJ1w7Ww1dgz6Ec-80">
          <mxGeometry y="26" width="331.02803738317755" height="26" as="geometry" />
        </mxCell>
        <mxCell id="vZCzkrnJ1w7Ww1dgz6Ec-82" value="+int UserID" style="text;align=left;verticalAlign=top;spacingLeft=4;spacingRight=4;overflow=hidden;rotatable=0;points=[[0,0.5],[1,0.5]];portConstraint=eastwest;rounded=0;shadow=0;html=0;" vertex="1" parent="vZCzkrnJ1w7Ww1dgz6Ec-80">
          <mxGeometry y="52" width="331.02803738317755" height="26" as="geometry" />
        </mxCell>
        <mxCell id="vZCzkrnJ1w7Ww1dgz6Ec-83" value="+string Type" style="text;align=left;verticalAlign=top;spacingLeft=4;spacingRight=4;overflow=hidden;rotatable=0;points=[[0,0.5],[1,0.5]];portConstraint=eastwest;rounded=0;shadow=0;html=0;" vertex="1" parent="vZCzkrnJ1w7Ww1dgz6Ec-80">
          <mxGeometry y="78" width="331.02803738317755" height="26" as="geometry" />
        </mxCell>
        <mxCell id="vZCzkrnJ1w7Ww1dgz6Ec-84" value="+string Message" style="text;align=left;verticalAlign=top;spacingLeft=4;spacingRight=4;overflow=hidden;rotatable=0;points=[[0,0.5],[1,0.5]];portConstraint=eastwest;rounded=0;shadow=0;html=0;" vertex="1" parent="vZCzkrnJ1w7Ww1dgz6Ec-80">
          <mxGeometry y="104" width="331.02803738317755" height="30" as="geometry" />
        </mxCell>
        <mxCell id="vZCzkrnJ1w7Ww1dgz6Ec-85" value="+dateTime Date" style="text;strokeColor=none;fillColor=none;align=left;verticalAlign=middle;spacingLeft=4;spacingRight=4;overflow=hidden;points=[[0,0.5],[1,0.5]];portConstraint=eastwest;rotatable=0;whiteSpace=wrap;html=1;" vertex="1" parent="vZCzkrnJ1w7Ww1dgz6Ec-80">
          <mxGeometry y="134" width="331.02803738317755" height="30" as="geometry" />
        </mxCell>
        <mxCell id="vZCzkrnJ1w7Ww1dgz6Ec-86" value="+string Status" style="text;strokeColor=none;fillColor=none;align=left;verticalAlign=middle;spacingLeft=4;spacingRight=4;overflow=hidden;points=[[0,0.5],[1,0.5]];portConstraint=eastwest;rotatable=0;whiteSpace=wrap;html=1;" vertex="1" parent="vZCzkrnJ1w7Ww1dgz6Ec-80">
          <mxGeometry y="164" width="331.02803738317755" height="30" as="geometry" />
        </mxCell>
        <mxCell id="vZCzkrnJ1w7Ww1dgz6Ec-87" value="+sendNotification ()&lt;div&gt;+markAsRead()&lt;/div&gt;&lt;div&gt;-generateMessage()&lt;/div&gt;" style="text;strokeColor=none;fillColor=none;align=left;verticalAlign=middle;spacingLeft=4;spacingRight=4;overflow=hidden;points=[[0,0.5],[1,0.5]];portConstraint=eastwest;rotatable=0;whiteSpace=wrap;html=1;" vertex="1" parent="vZCzkrnJ1w7Ww1dgz6Ec-80">
          <mxGeometry y="194" width="331.02803738317755" height="96" as="geometry" />
        </mxCell>
        <mxCell id="vZCzkrnJ1w7Ww1dgz6Ec-88" value="" style="endArrow=none;html=1;rounded=0;exitX=0.009;exitY=1.033;exitDx=0;exitDy=0;exitPerimeter=0;entryX=0.987;entryY=0.014;entryDx=0;entryDy=0;entryPerimeter=0;" edge="1" parent="vZCzkrnJ1w7Ww1dgz6Ec-80" source="vZCzkrnJ1w7Ww1dgz6Ec-86" target="vZCzkrnJ1w7Ww1dgz6Ec-87">
          <mxGeometry width="50" height="50" relative="1" as="geometry">
            <mxPoint x="5.757009345794392" y="285" as="sourcePoint" />
            <mxPoint x="329.5887850467289" y="279" as="targetPoint" />
          </mxGeometry>
        </mxCell>
        <mxCell id="vZCzkrnJ1w7Ww1dgz6Ec-216" value="" style="group" vertex="1" connectable="0" parent="vZCzkrnJ1w7Ww1dgz6Ec-217">
          <mxGeometry x="176.1400000000001" y="2130" width="673.8554216867469" height="320" as="geometry" />
        </mxCell>
        <mxCell id="vZCzkrnJ1w7Ww1dgz6Ec-128" value="Progress" style="swimlane;fontStyle=2;align=center;verticalAlign=top;childLayout=stackLayout;horizontal=1;startSize=26;horizontalStack=0;resizeParent=1;resizeLast=0;collapsible=1;marginBottom=0;rounded=0;shadow=0;strokeWidth=1;" vertex="1" parent="vZCzkrnJ1w7Ww1dgz6Ec-216">
          <mxGeometry width="243.855421686747" height="320" as="geometry">
            <mxRectangle x="230" y="140" width="160" height="26" as="alternateBounds" />
          </mxGeometry>
        </mxCell>
        <mxCell id="vZCzkrnJ1w7Ww1dgz6Ec-129" value="+int ProgressID" style="text;align=left;verticalAlign=top;spacingLeft=4;spacingRight=4;overflow=hidden;rotatable=0;points=[[0,0.5],[1,0.5]];portConstraint=eastwest;" vertex="1" parent="vZCzkrnJ1w7Ww1dgz6Ec-128">
          <mxGeometry y="26" width="243.855421686747" height="26" as="geometry" />
        </mxCell>
        <mxCell id="vZCzkrnJ1w7Ww1dgz6Ec-130" value="+int RequestID" style="text;align=left;verticalAlign=top;spacingLeft=4;spacingRight=4;overflow=hidden;rotatable=0;points=[[0,0.5],[1,0.5]];portConstraint=eastwest;rounded=0;shadow=0;html=0;" vertex="1" parent="vZCzkrnJ1w7Ww1dgz6Ec-128">
          <mxGeometry y="52" width="243.855421686747" height="26" as="geometry" />
        </mxCell>
        <mxCell id="vZCzkrnJ1w7Ww1dgz6Ec-133" value="+string Status" style="text;strokeColor=none;fillColor=none;align=left;verticalAlign=middle;spacingLeft=4;spacingRight=4;overflow=hidden;points=[[0,0.5],[1,0.5]];portConstraint=eastwest;rotatable=0;whiteSpace=wrap;html=1;" vertex="1" parent="vZCzkrnJ1w7Ww1dgz6Ec-128">
          <mxGeometry y="78" width="243.855421686747" height="30" as="geometry" />
        </mxCell>
        <mxCell id="vZCzkrnJ1w7Ww1dgz6Ec-134" value="+string Comment" style="text;strokeColor=none;fillColor=none;align=left;verticalAlign=middle;spacingLeft=4;spacingRight=4;overflow=hidden;points=[[0,0.5],[1,0.5]];portConstraint=eastwest;rotatable=0;whiteSpace=wrap;html=1;" vertex="1" parent="vZCzkrnJ1w7Ww1dgz6Ec-128">
          <mxGeometry y="108" width="243.855421686747" height="30" as="geometry" />
        </mxCell>
        <mxCell id="vZCzkrnJ1w7Ww1dgz6Ec-135" value="+dateTime UpdatedIt" style="text;strokeColor=none;fillColor=none;align=left;verticalAlign=middle;spacingLeft=4;spacingRight=4;overflow=hidden;points=[[0,0.5],[1,0.5]];portConstraint=eastwest;rotatable=0;whiteSpace=wrap;html=1;" vertex="1" parent="vZCzkrnJ1w7Ww1dgz6Ec-128">
          <mxGeometry y="138" width="243.855421686747" height="30" as="geometry" />
        </mxCell>
        <mxCell id="vZCzkrnJ1w7Ww1dgz6Ec-149" value="" style="endArrow=none;html=1;rounded=0;exitX=0.009;exitY=1.033;exitDx=0;exitDy=0;exitPerimeter=0;entryX=0.987;entryY=0.014;entryDx=0;entryDy=0;entryPerimeter=0;" edge="1" parent="vZCzkrnJ1w7Ww1dgz6Ec-128">
          <mxGeometry width="50" height="50" relative="1" as="geometry">
            <mxPoint x="0.0006024096385317534" y="180" as="sourcePoint" />
            <mxPoint x="238.55481927710844" y="180" as="targetPoint" />
          </mxGeometry>
        </mxCell>
        <mxCell id="vZCzkrnJ1w7Ww1dgz6Ec-137" value="+updateProgress()&lt;div&gt;+addComment()&lt;/div&gt;&lt;div&gt;-notifyStudent()&lt;/div&gt;" style="text;strokeColor=none;fillColor=none;align=left;verticalAlign=middle;spacingLeft=4;spacingRight=4;overflow=hidden;points=[[0,0.5],[1,0.5]];portConstraint=eastwest;rotatable=0;whiteSpace=wrap;html=1;" vertex="1" parent="vZCzkrnJ1w7Ww1dgz6Ec-128">
          <mxGeometry y="168" width="243.855421686747" height="96" as="geometry" />
        </mxCell>
        <mxCell id="vZCzkrnJ1w7Ww1dgz6Ec-138" value="Review" style="swimlane;fontStyle=2;align=center;verticalAlign=top;childLayout=stackLayout;horizontal=1;startSize=26;horizontalStack=0;resizeParent=1;resizeLast=0;collapsible=1;marginBottom=0;rounded=0;shadow=0;strokeWidth=1;" vertex="1" parent="vZCzkrnJ1w7Ww1dgz6Ec-216">
          <mxGeometry x="430" width="243.855421686747" height="320" as="geometry">
            <mxRectangle x="230" y="140" width="160" height="26" as="alternateBounds" />
          </mxGeometry>
        </mxCell>
        <mxCell id="vZCzkrnJ1w7Ww1dgz6Ec-139" value="+int ReviewtID" style="text;align=left;verticalAlign=top;spacingLeft=4;spacingRight=4;overflow=hidden;rotatable=0;points=[[0,0.5],[1,0.5]];portConstraint=eastwest;" vertex="1" parent="vZCzkrnJ1w7Ww1dgz6Ec-138">
          <mxGeometry y="26" width="243.855421686747" height="26" as="geometry" />
        </mxCell>
        <mxCell id="vZCzkrnJ1w7Ww1dgz6Ec-140" value="+int RequestID" style="text;align=left;verticalAlign=top;spacingLeft=4;spacingRight=4;overflow=hidden;rotatable=0;points=[[0,0.5],[1,0.5]];portConstraint=eastwest;rounded=0;shadow=0;html=0;" vertex="1" parent="vZCzkrnJ1w7Ww1dgz6Ec-138">
          <mxGeometry y="52" width="243.855421686747" height="26" as="geometry" />
        </mxCell>
        <mxCell id="vZCzkrnJ1w7Ww1dgz6Ec-141" value="+int Rating" style="text;align=left;verticalAlign=top;spacingLeft=4;spacingRight=4;overflow=hidden;rotatable=0;points=[[0,0.5],[1,0.5]];portConstraint=eastwest;rounded=0;shadow=0;html=0;" vertex="1" parent="vZCzkrnJ1w7Ww1dgz6Ec-138">
          <mxGeometry y="78" width="243.855421686747" height="26" as="geometry" />
        </mxCell>
        <mxCell id="vZCzkrnJ1w7Ww1dgz6Ec-143" value="+string Comment" style="text;strokeColor=none;fillColor=none;align=left;verticalAlign=middle;spacingLeft=4;spacingRight=4;overflow=hidden;points=[[0,0.5],[1,0.5]];portConstraint=eastwest;rotatable=0;whiteSpace=wrap;html=1;" vertex="1" parent="vZCzkrnJ1w7Ww1dgz6Ec-138">
          <mxGeometry y="104" width="243.855421686747" height="30" as="geometry" />
        </mxCell>
        <mxCell id="vZCzkrnJ1w7Ww1dgz6Ec-144" value="+dateTime CreatedIt" style="text;strokeColor=none;fillColor=none;align=left;verticalAlign=middle;spacingLeft=4;spacingRight=4;overflow=hidden;points=[[0,0.5],[1,0.5]];portConstraint=eastwest;rotatable=0;whiteSpace=wrap;html=1;" vertex="1" parent="vZCzkrnJ1w7Ww1dgz6Ec-138">
          <mxGeometry y="134" width="243.855421686747" height="30" as="geometry" />
        </mxCell>
        <mxCell id="vZCzkrnJ1w7Ww1dgz6Ec-145" value="+dateTime UpdatedIt" style="text;strokeColor=none;fillColor=none;align=left;verticalAlign=middle;spacingLeft=4;spacingRight=4;overflow=hidden;points=[[0,0.5],[1,0.5]];portConstraint=eastwest;rotatable=0;whiteSpace=wrap;html=1;" vertex="1" parent="vZCzkrnJ1w7Ww1dgz6Ec-138">
          <mxGeometry y="164" width="243.855421686747" height="30" as="geometry" />
        </mxCell>
        <mxCell id="vZCzkrnJ1w7Ww1dgz6Ec-146" value="" style="endArrow=none;html=1;rounded=0;exitX=0.009;exitY=1.033;exitDx=0;exitDy=0;exitPerimeter=0;entryX=0.987;entryY=0.014;entryDx=0;entryDy=0;entryPerimeter=0;" edge="1" parent="vZCzkrnJ1w7Ww1dgz6Ec-138">
          <mxGeometry width="50" height="50" relative="1" as="geometry">
            <mxPoint x="0.000602409638554402" y="220" as="sourcePoint" />
            <mxPoint x="238.55481927710844" y="220" as="targetPoint" />
          </mxGeometry>
        </mxCell>
        <mxCell id="vZCzkrnJ1w7Ww1dgz6Ec-150" value="+submitReview()&lt;div&gt;+editReview()&lt;/div&gt;&lt;div&gt;-calculateAverageRating()&lt;/div&gt;" style="text;strokeColor=none;fillColor=none;align=left;verticalAlign=middle;spacingLeft=4;spacingRight=4;overflow=hidden;points=[[0,0.5],[1,0.5]];portConstraint=eastwest;rotatable=0;whiteSpace=wrap;html=1;" vertex="1" parent="vZCzkrnJ1w7Ww1dgz6Ec-138">
          <mxGeometry y="194" width="243.855421686747" height="96" as="geometry" />
        </mxCell>
      </root>
    </mxGraphModel>
  </diagram>
</mxfile>
